<svg xmlns="http://www.w3.org/2000/svg" width="1100" height="520" viewBox="0 0 1100 520" role="img" aria-label="Architecture diagram"><rect width="1100" height="520" fill="#f8fafc"/><style>.box{fill:#ffffff;stroke:#2d3748;stroke-width:2;rx:16}.main{fill:#edf2f7}.text{font:600 18px Arial;fill:#1a202c}.small{font:14px Arial;fill:#4a5568}.line{stroke:#4a5568;stroke-width:2;marker-end:url(#a)}</style><defs><marker id="a" markerWidth="10" markerHeight="10" refX="8" refY="3" orient="auto"><path d="M0,0 L0,6 L9,3 z" fill="#4a5568"/></marker></defs><rect class="box main" x="40" y="60" width="150" height="80"/><text class="text" x="75" y="105">User</text><rect class="box" x="240" y="45" width="180" height="110"/><text class="text" x="275" y="88">Intent</text><text class="small" x="270" y="118">safety + type</text><rect class="box" x="470" y="45" width="170" height="110"/><text class="text" x="520" y="88">Router</text><text class="small" x="495" y="118">alias decision</text><rect class="box main" x="700" y="45" width="180" height="110"/><text class="text" x="740" y="88">Supervisor</text><text class="small" x="735" y="118">task graph</text><rect class="box" x="920" y="60" width="140" height="80"/><text class="text" x="958" y="105">Answer</text><line class="line" x1="190" y1="100" x2="240" y2="100"/><line class="line" x1="420" y1="100" x2="470" y2="100"/><line class="line" x1="640" y1="100" x2="700" y2="100"/><line class="line" x1="880" y1="100" x2="920" y2="100"/><rect class="box" x="130" y="250" width="160" height="90"/><text class="text" x="178" y="290">Planner</text><text class="small" x="160" y="318">decompose</text><rect class="box" x="335" y="250" width="170" height="90"/><text class="text" x="382" y="290">RAG</text><text class="small" x="360" y="318">hybrid search</text><rect class="box" x="550" y="250" width="170" height="90"/><text class="text" x="590" y="290">Agents</text><text class="small" x="578" y="318">coworkers</text><rect class="box" x="765" y="250" width="170" height="90"/><text class="text" x="803" y="290">Verifier</text><text class="small" x="797" y="318">grounding</text><rect class="box" x="455" y="390" width="190" height="70"/><text class="text" x="500" y="432">Local Traces</text><line class="line" x1="790" y1="155" x2="210" y2="250"/><line class="line" x1="290" y1="295" x2="335" y2="295"/><line class="line" x1="505" y1="295" x2="550" y2="295"/><line class="line" x1="720" y1="295" x2="765" y2="295"/><line class="line" x1="850" y1="250" x2="990" y2="140"/><line class="line" x1="635" y1="340" x2="550" y2="390"/></svg>
