<svg xmlns="http://www.w3.org/2000/svg" width="980" height="460" viewBox="0 0 980 460" role="img" aria-label="Evaluation dashboard mockup"><rect width="980" height="460" fill="#f8fafc"/><style>.card{fill:#fff;stroke:#4a5568;stroke-width:2;rx:14}.bar{fill:#319795}.bar2{fill:#805ad5}.bar3{fill:#d69e2e}.t{font:600 18px Arial;fill:#1a202c}.s{font:14px Arial;fill:#4a5568}.n{font:700 24px Arial;fill:#1a202c}</style><text class="t" x="40" y="42">Local Evaluation Dashboard</text><rect class="card" x="40" y="70" width="270" height="140"/><text class="s" x="65" y="105">retrieval recall</text><rect class="bar" x="65" y="130" width="205" height="22"/><text class="n" x="65" y="185">0.92</text><rect class="card" x="355" y="70" width="270" height="140"/><text class="s" x="380" y="105">citation precision</text><rect class="bar2" x="380" y="130" width="198" height="22"/><text class="n" x="380" y="185">0.88</text><rect class="card" x="670" y="70" width="270" height="140"/><text class="s" x="695" y="105">workflow success</text><rect class="bar3" x="695" y="130" width="222" height="22"/><text class="n" x="695" y="185">0.95</text><rect class="card" x="40" y="250" width="900" height="150"/><text class="s" x="70" y="285">route accuracy</text><rect class="bar" x="210" y="270" width="620" height="20"/><text class="s" x="70" y="325">faithfulness</text><rect class="bar2" x="210" y="310" width="580" height="20"/><text class="s" x="70" y="365">latency p50</text><rect class="bar3" x="210" y="350" width="310" height="20"/></svg>
